<?xml version="1.0" encoding="utf-8"?>
<!-- Generator: Adobe Illustrator 22.1.0, SVG Export Plug-In . SVG Version: 6.00 Build 0)  -->
<svg version="1.1" id="Layer_1" xmlns="http://www.w3.org/2000/svg" xmlns:xlink="http://www.w3.org/1999/xlink" x="0px" y="0px"
	 viewBox="0 0 32 32" style="enable-background:new 0 0 32 32;" xml:space="preserve">
<title>linux</title>
<path d="M16.7,0c-0.2,0-0.4,0-0.6,0c-5.6,0.4-4.1,6.4-4.2,8.4c-0.1,1.5-0.4,2.6-1.4,4c-1.2,1.4-2.8,3.7-3.6,6
	c-0.4,1.1-0.5,2.3-0.4,3.3c-0.1,0-0.1,0.1-0.2,0.2c-0.3,0.4-0.6,0.8-0.9,1.1c-0.3,0.3-0.6,0.4-1.1,0.5c-0.4,0.2-0.9,0.4-1.2,0.9
	C3,24.8,3,25.1,3,25.3c0,0.3,0,0.5,0.1,0.7c0.1,0.5,0.2,1,0.1,1.3c-0.3,0.9-0.4,1.5-0.1,2c0.2,0.4,0.7,0.6,1.2,0.8
	c1.1,0.3,2.5,0.2,3.7,0.8c1.2,0.6,2.5,0.9,3.5,0.6c0.7-0.2,1.3-0.6,1.6-1.3c0.8,0,1.6-0.4,3-0.4c0.9-0.1,2.1,0.4,3.4,0.3
	c0,0.2,0.1,0.3,0.2,0.4v0c0.5,1,1.5,1.5,2.5,1.4c1-0.1,2.1-0.7,3-1.7c0.8-1,2.2-1.4,3.2-2c0.5-0.3,0.8-0.6,0.9-1.1
	c0-0.5-0.3-1.1-0.9-1.8v-0.1l0,0c-0.2-0.3-0.3-0.7-0.5-1.2c-0.1-0.5-0.2-1-0.7-1.4c-0.1-0.1-0.2-0.1-0.3-0.2
	c-0.1-0.1-0.2-0.1-0.3-0.1c0.6-1.7,0.3-3.4-0.2-4.9c-0.7-1.9-2-3.5-2.9-4.6c-1.1-1.3-2.1-2.6-2.1-4.5C21.4,5.3,21.7,0,16.7,0L16.7,0
	z M17.4,4.5L17.4,4.5c0.3,0,0.5,0.1,0.8,0.3c0.3,0.2,0.4,0.4,0.6,0.7c0.1,0.3,0.2,0.6,0.2,1c0,0,0-0.1,0-0.1v0.1c0,0,0,0,0,0l0,0
	c0,0.3-0.1,0.6-0.2,0.9c-0.1,0.2-0.2,0.3-0.3,0.4c0,0-0.1,0-0.1-0.1c-0.1-0.1-0.3-0.1-0.4-0.2c-0.1,0-0.2-0.1-0.3-0.1
	c0.1-0.1,0.2-0.2,0.2-0.3c0.1-0.2,0.1-0.3,0.1-0.5v0c0-0.2,0-0.4-0.1-0.5c-0.1-0.2-0.1-0.3-0.2-0.4c-0.1-0.1-0.2-0.2-0.4-0.2h0
	c-0.1,0-0.2,0-0.3,0.2c-0.1,0.1-0.2,0.3-0.3,0.4c-0.1,0.2-0.1,0.4-0.1,0.5v0c0,0.1,0,0.2,0,0.4c-0.3-0.1-0.6-0.2-0.8-0.3
	c0-0.1,0-0.2,0-0.3v0c0-0.4,0.1-0.7,0.2-1c0.1-0.3,0.3-0.5,0.6-0.7C16.8,4.6,17.1,4.5,17.4,4.5L17.4,4.5z M13.4,4.6L13.4,4.6
	c0.2,0,0.4,0.1,0.6,0.2c0.2,0.2,0.4,0.4,0.5,0.6c0.1,0.3,0.2,0.5,0.2,0.9v0c0,0.2,0,0.3,0,0.4v0.1c0,0-0.1,0-0.1,0
	C14.4,6.9,14.2,7,14,7.1c0-0.1,0-0.2,0-0.4v0c0-0.2-0.1-0.3-0.1-0.4c0-0.1-0.1-0.3-0.2-0.4c-0.1-0.1-0.2-0.1-0.2-0.1h0
	c-0.1,0-0.2,0.1-0.2,0.2C13.1,6.1,13,6.2,13,6.3c0,0.1,0,0.3,0,0.4v0c0,0.2,0,0.3,0.1,0.4c0.1,0.2,0.1,0.3,0.2,0.4c0,0,0,0,0,0
	c-0.1,0.1-0.2,0.1-0.2,0.2c-0.1,0-0.1,0.1-0.2,0.1c-0.1-0.2-0.3-0.3-0.4-0.5c-0.1-0.3-0.2-0.6-0.2-0.9c0-0.3,0-0.6,0.1-0.9
	c0.1-0.3,0.2-0.5,0.4-0.7C13,4.7,13.2,4.6,13.4,4.6L13.4,4.6z M15.3,6.9c0.4,0,1,0.1,1.6,0.5c0.4,0.3,0.7,0.4,1.4,0.6
	c0.3,0.2,0.5,0.4,0.6,0.5V8.4C19,8.6,19,8.8,18.9,9c-0.2,0.4-0.7,0.9-1.4,1.1v0c-0.4,0.2-0.7,0.4-1,0.6c-0.4,0.2-0.8,0.4-1.3,0.4
	c-0.2,0-0.4,0-0.6-0.1c-0.1-0.1-0.3-0.2-0.4-0.3c-0.3-0.2-0.5-0.4-0.8-0.6v0h0c-0.5-0.3-0.8-0.7-0.9-0.9c-0.1-0.4,0-0.6,0.3-0.8
	C12.9,8.2,13.1,8,13.3,8c0.1-0.1,0.2-0.1,0.2-0.2h0v0c0.2-0.3,0.6-0.6,1.1-0.8C14.8,6.9,15,6.9,15.3,6.9L15.3,6.9z M19,9.7
	c0.5,1.9,1.6,4.6,2.3,6c0.4,0.7,1.1,2.2,1.5,4c0.2,0,0.4,0,0.7,0.1c0.9-2.2-0.7-4.6-1.4-5.3c-0.3-0.3-0.3-0.4-0.2-0.4
	c0.8,0.7,1.8,2.1,2.2,3.7c0.2,0.7,0.2,1.5,0,2.2c0.1,0,0.2,0.1,0.3,0.1c1.4,0.7,1.9,1.3,1.6,2.1v-0.1c-0.1,0-0.2,0-0.2,0h0
	c0.2-0.6-0.2-1.1-1.4-1.6c-1.2-0.5-2.2-0.4-2.4,0.6c0,0.1,0,0.1,0,0.2c-0.1,0-0.2,0.1-0.3,0.1c-0.6,0.4-0.9,0.9-1.1,1.6
	c-0.2,0.7-0.2,1.5-0.3,2.5c0,0.4-0.2,1.1-0.4,1.8c-2,1.4-4.8,2.1-7.1,0.4c-0.2-0.3-0.3-0.5-0.5-0.7c-0.1-0.2-0.2-0.3-0.4-0.4
	c0.2,0,0.5,0,0.6-0.1c0.2-0.1,0.3-0.3,0.4-0.4c0.1-0.4,0-0.9-0.5-1.6c-0.5-0.6-1.2-1.3-2.4-2c-0.8-0.5-1.3-1.2-1.5-1.9
	c-0.2-0.7-0.2-1.4,0-2.2c0.3-1.4,1.2-2.8,1.7-3.7c0.1-0.1,0,0.2-0.5,1.3c-0.5,1-1.5,3.3-0.2,5.1c0.1-1.3,0.3-2.6,0.9-3.8
	c0.7-1.7,2.3-4.7,2.4-7c0.1,0.1,0.3,0.2,0.4,0.3c0.3,0.2,0.5,0.4,0.8,0.6c0.3,0.3,0.6,0.4,1.2,0.4c0.1,0,0.1,0,0.1,0
	c0.5,0,1-0.2,1.3-0.4c0.4-0.2,0.7-0.4,1-0.5h0C18.2,10.5,18.7,10.1,19,9.7L19,9.7z M21.9,21.7c0.1,0.8,0.5,1.7,1.2,1.8
	c0.8,0.2,1.9-0.4,2.4-1l0.3,0c0.4,0,0.8,0,1.1,0.4l0,0c0.3,0.3,0.4,0.7,0.5,1.2c0.1,0.5,0.2,1,0.5,1.4c0.6,0.7,0.9,1.2,0.8,1.5l0,0
	c0,0.3-0.3,0.5-0.7,0.8c-0.8,0.5-2.3,0.9-3.3,2.1c-0.8,1-1.8,1.5-2.7,1.6c-0.9,0.1-1.7-0.3-2.1-1.2l0,0c-0.3-0.5-0.2-1.4,0.1-2.3
	c0.2-0.9,0.6-1.8,0.6-2.5c0-1,0.1-1.8,0.3-2.4C21.1,22.4,21.4,22,21.9,21.7L21.9,21.7L21.9,21.7z M7.5,21.8L7.5,21.8
	c0.1,0,0.2,0,0.2,0c0.5,0.1,0.9,0.4,1.4,1l1.2,2.2l0,0c0.3,0.7,1,1.4,1.6,2.2c0.6,0.8,1,1.5,1,2.1v0c-0.1,1-0.6,1.5-1.5,1.7
	c-0.9,0.2-2,0-3.2-0.6c-1.3-0.7-2.8-0.6-3.8-0.8c-0.5-0.1-0.8-0.3-1-0.5c-0.1-0.3-0.2-0.8,0.2-1.6v0c0.2-0.4,0-1,0-1.5
	c-0.1-0.5-0.1-0.9,0.1-1.3c0.2-0.4,0.5-0.5,0.9-0.7c0.4-0.2,0.9-0.3,1.2-0.6h0v0C6,23,6.3,22.5,6.6,22.2C6.9,21.9,7.1,21.8,7.5,21.8
	z M17,9.7c-0.6,0.3-1.3,0.7-2,0.7s-1.3-0.4-1.7-0.6c-0.2-0.2-0.4-0.4-0.5-0.4c-0.2-0.2-0.2-0.4-0.1-0.4c0.1,0,0.2,0.2,0.3,0.3
	c0.1,0.1,0.3,0.3,0.5,0.4c0.4,0.3,0.9,0.6,1.6,0.6c0.6,0,1.4-0.4,1.9-0.6c0.3-0.2,0.6-0.4,0.9-0.6C18,8.8,18,8.6,18.1,8.6
	c0.2,0,0,0.2-0.2,0.4C17.7,9.2,17.3,9.5,17,9.7L17,9.7z M15.6,7.5L15.6,7.5C15.6,7.5,15.6,7.5,15.6,7.5c0.1-0.2,0.3-0.1,0.4-0.1
	c0.1,0,0.2,0.1,0.2,0.2c0,0.1-0.1,0.1-0.2,0.1c-0.1,0-0.1-0.1-0.2-0.1C15.7,7.6,15.6,7.6,15.6,7.5L15.6,7.5z M14.8,7.5
	c0,0.1-0.2,0.1-0.2,0.1c-0.1,0-0.1,0.1-0.2,0.1c-0.1,0-0.2,0-0.2-0.1c0-0.1,0.1-0.2,0.2-0.2C14.6,7.4,14.7,7.4,14.8,7.5
	C14.8,7.5,14.9,7.5,14.8,7.5L14.8,7.5L14.8,7.5z"/>
</svg>
