<?xml version="1.0" encoding="utf-8"?>
<!-- Generator: Adobe Illustrator 22.1.0, SVG Export Plug-In . SVG Version: 6.00 Build 0)  -->
<svg version="1.1" id="Layer_1" xmlns="http://www.w3.org/2000/svg" xmlns:xlink="http://www.w3.org/1999/xlink" x="0px" y="0px"
	 viewBox="0 0 32 32" style="enable-background:new 0 0 32 32;" xml:space="preserve">
<title>sass-alt</title>
<path d="M15.1,22.1C15.1,22.2,15.1,22.2,15.1,22.1z M27.5,17.8c-1,0-2,0.2-2.9,0.7C24.4,17.9,24,17.4,24,17
	c-0.1-0.5-0.1-0.7-0.1-1.3s0.4-1.3,0.4-1.4c0-0.1-0.1-0.3-0.7-0.3s-1.2,0.1-1.3,0.3c-0.1,0.3-0.2,0.6-0.3,1c-0.1,0.6-1.3,2.7-2,3.8
	c-0.2-0.4-0.4-0.8-0.4-1.1c-0.1-0.5-0.1-0.7-0.1-1.3s0.4-1.3,0.4-1.4c0-0.1-0.1-0.3-0.7-0.3s-1.2,0.1-1.3,0.3
	c-0.1,0.2-0.1,0.6-0.3,1s-1.7,3.9-2.1,4.8c-0.2,0.5-0.4,0.8-0.5,1.1c0,0,0,0.1,0,0.1c0,0,0,0,0,0c-0.1,0.2-0.2,0.3-0.2,0.3v0
	c-0.1,0.2-0.2,0.3-0.2,0.3c0,0-0.1-0.4,0-1c0.2-1.2,0.8-3.1,0.8-3.2c0,0,0.1-0.4-0.4-0.5c-0.5-0.2-0.6,0.1-0.7,0.1s-0.1,0.1-0.1,0.1
	s0.5-2.1-1-2.1c-0.9,0-2.2,1-2.8,1.9c-0.4,0.2-1.2,0.7-2.1,1.2c-0.3,0.2-0.7,0.4-1,0.6c0,0,0,0-0.1-0.1c-1.8-1.9-5.1-3.3-5-5.8
	c0-0.9,0.4-3.4,6.4-6.4c4.9-2.4,8.8-1.8,9.5-0.3c1,2.1-2.1,6.1-7.2,6.7c-1.9,0.2-3-0.5-3.2-0.8c-0.3-0.3-0.3-0.3-0.4-0.3
	c-0.2,0.1-0.1,0.4,0,0.5c0.2,0.4,0.8,1.1,1.8,1.4c0.9,0.3,3.2,0.5,6-0.6c3.1-1.2,5.5-4.5,4.8-7.3c-0.7-2.8-5.4-3.7-9.8-2.2
	C7.6,5.7,4.7,7.2,2.7,9.1c-2.4,2.3-2.8,4.3-2.7,5.1c0.6,2.9,4.6,4.9,6.3,6.3c-0.1,0-0.2,0.1-0.2,0.1c-0.8,0.4-3.9,2-4.7,3.7
	c-0.9,1.9,0.1,3.3,0.8,3.5c2.1,0.6,4.2-0.5,5.4-2.2s1-4,0.5-5c0,0,0,0,0,0c0.2-0.1,0.4-0.2,0.6-0.4c0.4-0.2,0.8-0.5,1.2-0.7
	c-0.2,0.5-0.3,1.2-0.4,2.1c-0.1,1.1,0.4,2.5,1,3.1c0.3,0.2,0.6,0.2,0.8,0.2c0.7,0,1-0.6,1.3-1.2c0.4-0.8,0.8-1.8,0.8-1.8
	s-0.5,2.6,0.8,2.6c0.5,0,0.9-0.6,1.1-0.9v0c0,0,0,0,0-0.1c0.1-0.1,0.1-0.1,0.1-0.1v0c0.2-0.3,0.6-1.1,1.2-2.3
	c0.8-1.6,1.6-3.6,1.6-3.6c0.1,0.4,0.2,0.9,0.3,1.3c0.1,0.5,0.4,1,0.7,1.5c-0.2,0.3-0.3,0.4-0.3,0.4c0,0,0,0,0,0
	c-0.1,0.2-0.3,0.4-0.5,0.6c-0.6,0.8-1.4,1.6-1.5,1.9c-0.1,0.3-0.1,0.5,0.1,0.7c0.2,0.1,0.5,0.1,0.8,0.1c0.6,0,1-0.2,1.2-0.3
	c0.4-0.1,0.7-0.3,1-0.5c0.6-0.5,1-1.1,1-2c0-0.5-0.2-1-0.4-1.4c0.1-0.1,0.1-0.2,0.2-0.2c1-1.4,1.8-3,1.8-3c0.1,0.4,0.2,0.9,0.3,1.3
	c0.1,0.4,0.4,0.9,0.6,1.3c-0.9,0.8-1.5,1.6-1.7,2.2c-0.4,1.1-0.1,1.5,0.5,1.7c0.2,0,0.6-0.1,0.9-0.2c0.4-0.1,0.8-0.3,1.1-0.6
	c0.6-0.5,1.2-1.1,1.2-2c0-0.4-0.1-0.8-0.3-1.2c0.8-0.3,1.8-0.5,3.1-0.4c2.8,0.3,3.3,2.1,3.2,2.8s-0.7,1.1-0.9,1.2s-0.3,0.2-0.2,0.3
	c0,0.1,0.1,0.1,0.3,0.1c0.2,0,1.5-0.6,1.5-1.9C32.1,19.6,30.4,17.8,27.5,17.8L27.5,17.8z M6.1,25c-0.9,1-2.2,1.4-2.8,1.1
	c-0.6-0.3-0.4-1.8,0.8-2.9c0.7-0.6,1.6-1.2,2.2-1.6c0.1-0.1,0.3-0.2,0.6-0.3c0,0,0.1,0,0.1,0c0,0,0.1-0.1,0.1-0.1
	C7.5,22.6,7.1,24,6.1,25L6.1,25z M12.8,20.5c-0.3,0.8-1,2.8-1.4,2.7c-0.4-0.1-0.6-1.6-0.1-3.1c0.2-0.8,0.8-1.7,1.1-2
	c0.5-0.6,1.1-0.7,1.2-0.5C13.8,17.8,13,20,12.8,20.5z M18.4,23.1c-0.1,0.1-0.3,0.1-0.3,0.1c0,0,0.1-0.1,0.1-0.1s0.7-0.7,1-1.1
	c0.2-0.2,0.3-0.4,0.5-0.7c0,0,0,0,0,0.1C19.6,22.3,18.7,22.9,18.4,23.1L18.4,23.1z M22.6,22.1c-0.1-0.1-0.1-0.3,0.2-1
	c0.1-0.3,0.4-0.8,1-1.2c0.1,0.2,0.1,0.4,0.1,0.5C23.9,21.5,23.1,22,22.6,22.1z"/>
</svg>
